<svg viewBox="0 0 48 48" id="icon-13"><title>Cache In Trash Out Event - disabled</title><ellipse cx="24" cy="24" rx="24" ry="24" fill="#fff"></ellipse><path d="M23.731 4.219c10.895 0 19.727 8.832 19.727 19.727s-8.831 19.727-19.727 19.727c-10.894 0-19.726-8.832-19.726-19.727S12.837 4.219 23.731 4.219" fill="#003a65"></path><path d="M9.719 36.249c-3.306-3.768-4.921-8.612-4.582-13.611s2.605-9.564 6.38-12.855a18.614 18.614 0 0 1 13.604-4.569 18.634 18.634 0 0 1 11.419 4.912c-3.483-2.565-8.395-2.471-11.788.487-3.926 3.423-4.331 9.383-.905 13.313v.001c3.426 3.93 3.02 9.889-.905 13.312a9.436 9.436 0 0 1-6.229 2.32c-2.769 0-4.998-1.035-6.994-3.31" fill="#029f4c"></path><path d="M16.13 25.221c.656 0 1.187-.527 1.187-1.176 0-.65-.532-1.176-1.187-1.176-.656 0-1.187.527-1.187 1.176 0 .649.531 1.176 1.187 1.176" fill="#fff"></path><path d="M13.599 34.898c.052-2.435.898-5.062 2.531-6.659 1.611 1.24 2.654 2.854 3.065 4.896h2.352c-.59-2.854-2.183-4.676-4.091-5.919 2.282-1.814 2.726-3.716 2.726-4.723h-.912c-.139.946-.648 2.385-3.14 3.846-2.64-1.533-3.044-2.894-3.14-3.846h-.911c0 1.084.456 3.035 2.732 4.724-2.347 2.346-3.312 5.254-3.523 7.683h2.311m20.372-18.619l.442-1.906-.537.31-1.196-2.027c-.376-.652-.942-1.025-1.552-1.025s-1.176.374-1.552 1.025l-1.38 2.379 1.223.706 1.38-2.379c.135-.234.195-.319.33-.319s.194.085.33.319l1.196 2.027-.554.32 1.87.57zm-1.74 5.848v-.633h2.448c.752 0 1.359-.303 1.664-.832.305-.529.265-1.205-.112-1.857l-1.373-2.364-1.223.706 1.374 2.364c.135.234.173.349.112.445-.066.104-.171.126-.441.126h-2.448v-.627l-1.43 1.336 1.429 1.336zm-4.654-.633c-.752 0-1.359-.303-1.664-.832s-.264-1.205.112-1.857l1.184-2.008-.553-.319 1.872-.57.442 1.906-.538-.311-1.184 2.008c-.135.234-.181.346-.112.445.069.099.171.126.441.126h2.65v1.412h-2.65z" fill="#fff"></path></svg>
