<svg viewBox="0 0 48 48" id="icon-137"><title>EarthCache</title><circle cx="24" cy="24" r="24" fill="#fff"></circle><path d="M22.958 23.092c.089-3.201.653-7.191 1.362-9.265V4.978c-4.128 6.792-4.492 17.968-4.448 21.92l3.086-3.806m2.462-10.413c4.564.179 8.526 5.714 8.784 9.617l9.333 1.436.022-.017c-.162-10.312-8.106-18.73-18.139-19.529v8.493m7.668 10.57c-2.739 1.099-7.149 1.486-9.547.881l-3.185 3.926c1.221.265 3.682.692 6.74.692 3.955 0 9.901-.813 15.091-4.099l-9.099-1.4" fill="#efdd92"></path><path d="M27.096 29.861c-4.545 0-7.739-.89-7.872-.929l-.375-.106-.026-.392c-.043-.648-.714-15.734 4.732-24.321-10.723.167-19.398 9.038-19.398 19.924 0 10.994 8.839 19.934 19.704 19.934 10.514 0 19.131-8.373 19.677-18.872-5.594 3.849-12.14 4.762-16.442 4.762" fill="#a0d4e0"></path><path d="M25.42 12.679c4.564.179 8.526 5.714 8.784 9.617l3.668.564c-.24-6.635-5.911-12.835-12.453-13.086v2.905m7.669 10.57c-2.739 1.099-7.149 1.486-9.547.881l-1.207 1.488c4.625 1.156 10.268.498 14.591-1.779l-3.837-.59M24.32 10.901c-1.298 2.676-2.249 7.88-2.369 13.435l1.006-1.244c.089-3.201.653-7.191 1.362-9.265v-2.926" fill="#ffb600"></path><path d="M4.166 23.684c1.494.045 3.935-3.335 4.023-5.023.092-1.761.733-1.854 1.651-2.041.916-.183 2.566 1.206 3.756.65 1.193-.556 2.659-2.41 2.751-2.874.091-.465.733-2.41-.184-4.266-.68-1.375-.251-3.459.015-4.448C9.222 8.674 4.306 15.6 4.166 23.684m36.82 2.939c-.105 1.15-.814 7.613-3.376 6.965-2.566-.649-6.114-3.066-8.249-1.577-2.657 1.855-.092 3.246-1.191 4.542-1.101 1.299-.366 3.338-.55 4.637-.154 1.093-.827 2.248-1.036 2.587 9.24-1.299 16.443-9.099 16.945-18.672-.83.571-1.682 1.07-2.543 1.518" fill="#1f5910"></path></svg>
