<svg viewBox="0 0 48 48" id="icon-3"><title>Multi-Cache</title><circle cx="24.003" cy="24" r="24" fill="#fff"></circle><circle cx="24.003" cy="24" r="20" fill="#e98300"></circle><path d="M31.536 20.961a372.68 372.68 0 0 0-2.624-.005c-2.709 0-6.372.005-6.372.005l-12.061 2.285s-.294.07-.294.568v.918c0 .484.375.514.467.514h.02l.379.045v5.437c0 1.296.924 2.348 2.057 2.348h6.557c.339 0 .656-.105.937-.271l.005.013 8.463-3.065c1.822-.794 1.857-1.541 1.857-2.709l-.003-4.345c.137-.051.59-.064.596-.073.004-.005.226-.073.226-.328V21.21c.001-.177-.2-.249-.21-.249zM18.691 31.333h-4.92c-.55 0-.991-.56-.991-1.276v-4.766h6.912l.003 4.747c0 .717-.452 1.295-1.004 1.295zm10.517-4.883c-.011.569-.095 1.231-1.223 1.72l-6.616 2.264s.051-.231.051-.391v-4.752l7.776-2.121c.003.318.025 2.604.012 3.28zm8.325-10.293l-12.657-1.234s-8.969 1.323-9.291 1.361c-.01 0-.206.095-.21.28v1.416c0 .263.216.309.217.313.013.006.519.03.652.07l.238.016h-.247l.003 1.632 1.732-.232-.006-1.298 10.472.717s.766.035 1.225.035c.118 0 .215-.003.274-.009 2.237-.215 4.047-.436 5.319-.607l-.005 4.035c0 .725-.447.837-.995.888l-1.627.309c.001.162.003.211.009.353.005.218.007.905.001 1.092l2.293-.309c1.122-.102 2.032-1.253 2.032-2.561l.01-4.053.364-.057s.484-.01.484-.566c0-.274 0-.747.003-1.04-.001-.506-.29-.551-.29-.551z" fill="#fff"></path></svg>
