<svg viewBox="0 0 48 48" id="icon-8"><title>Mystery Cache</title><circle cx="23.997" cy="24" r="24" fill="#fff"></circle><circle cx="23.997" cy="24" r="20" fill="#12508c"></circle><path d="M23.128 11.52c-6.949 0-8.254 4.578-8.251 6.659 0 2.497 1.737 3.329 3.909 3.329 2.268 0 3.04-1.628 3.04-2.497s-.434-2.497-2.606-2.497c0-.869 1.424-1.665 3.909-1.665 2.606 0 3.909 1.665 3.909 3.329 0 1.665-.469 2.456-2.606 4.162-2.606 2.081-3.474 3.329-3.474 4.994-.002.832 0 1.23 0 1.665 0 .416.869.832 1.737.832.869 0 1.737-.416 1.737-.832 0-1.739-.013-2.515 3.909-4.994 3.909-2.497 4.777-3.746 4.777-5.827-.001-2.496-1.304-6.658-9.99-6.658zm-.448 19.961c-1.441 0-2.608 1.119-2.608 2.499s1.168 2.5 2.608 2.5c1.44 0 2.608-1.119 2.608-2.5s-1.168-2.499-2.608-2.499z" fill="#fff"></path></svg>
