<svg viewBox="0 0 48 48" id="icon-2"><title>Traditional Cache</title><circle cx="24" cy="24" r="24" fill="#fff"></circle><circle cx="24" cy="24" r="20" fill="#02874d"></circle><path d="M37.43 16.444a.435.435 0 0 0-.429-.441c-.409-.01-11.518.006-11.518.006l-15.117 3.683s-.367.092-.367.736v1.919c0 .708.613.662.613.662l.237.049v6.693c0 1.659 1.138 3.017 2.561 3.017h8.58c.425 0 .819-.133 1.174-.345l.005.015 11.092-4.594c2.279-1.027 2.36-1.854 2.319-3.492 0-.193-.009-.404-.009-.635V18.63c.169-.06.601-.101.61-.11.006-.004.257-.092.257-.423 0-.401-.008-1.221-.008-1.653zM21.588 30.988h-7.749c-.696 0-1.259-.744-1.259-1.66v-6.269h10.268v6.269c0 .915-.564 1.66-1.26 1.66zm13.276-6.963c.03 1.31-.12 1.587-1.535 2.216l-8.814 3.707c.03-.193.049-.391.049-.593l.006-6.297s.658-.373.857-.441c1.846-.633 6.784-2.412 9.424-3.365v4.105c0 .244.005.466.013.668z" fill="#fff"></path></svg>
