<svg viewBox="0 0 48 48" id="icon-4"><title>Virtual Cache</title><circle cx="24" cy="24" r="24" fill="#fff"></circle><circle cx="24" cy="24" r="20" fill="#009bbb"></circle><path d="M31.507 19.387c0 .104.005-.104 0 0zm.631 9.216c3.473-3.267 4.14-8.031 2.599-8.414-1.088-.27-1.667.708-3.201 2-.029-1.061-.029-1.932-.029-2.802 0-4.316-2.201-8.022-7.234-8.022s-7.333 3.55-7.333 8.241c.003.09-.111 1.392-.214 2.797-1.734-1.396-2.315-2.5-3.463-2.215-1.615.401-.807 5.616 3.116 8.875l.088.041c-.109 1.722-.323 3.37-.73 4.564-1.432 4.192 3.726 1.362 4.87 1.362 1.312 0 2.598 1.586 4.441 1.604 1.935.019 2.067-1.081 4.037-1.604 1.232-.327 5.606 3.122 4.037-2.407a52.134 52.134 0 0 1-.984-4.02zm-11.531-8.815c0-1.108.542-2.006 1.211-2.006s1.211.898 1.211 2.006c0 1.107-.542 2.006-1.211 2.006s-1.211-.898-1.211-2.006zm3.633 5.558c-.988 0-2.091-.84-2.091-1.504 0-.665 1.103.201 2.091.201s2.019-.908 2.019-.243-1.031 1.546-2.019 1.546zm2.422-3.552c-.669 0-1.211-.898-1.211-2.006 0-1.108.542-2.006 1.211-2.006s1.211.898 1.211 2.006c.001 1.108-.542 2.006-1.211 2.006z" fill="#fff"></path></svg>
