<svg viewBox="0 0 48 48" id="icon-11"><title>Webcam Cache</title><circle cx="24" cy="24" r="24" fill="#fff"></circle><circle cx="24" cy="24" r="20" fill="#009bbb"></circle><path d="M24.038 18.879c-1.997 0-3.616 1.593-3.616 3.559 0 1.966 1.619 3.559 3.616 3.559s3.616-1.593 3.616-3.559c0-1.965-1.619-3.559-3.616-3.559zm3.982 12.622c3.566-1.529 6.061-5.026 6.061-9.099 0-5.48-4.513-9.922-10.08-9.922s-10.08 4.442-10.08 9.922c0 4.073 2.495 7.572 6.062 9.1-2.444.908-4.377 2.433-4.377 3.583 0 .222.09.436.443.436h15.954a.428.428 0 0 0 .443-.436c-.001-1.151-1.963-2.677-4.426-3.584zm-4.007-3.916c-2.902 0-5.255-2.315-5.255-5.172s2.353-5.172 5.255-5.172 5.254 2.315 5.254 5.172-2.352 5.172-5.254 5.172z" fill="#fff"></path></svg>
