<svg viewBox="0 0 48 48" id="icon-1858"><title>Wherigo Cache</title><circle cx="23.997" cy="24" r="24" fill="#fff"></circle><circle cx="23.997" cy="24" r="20" fill="#12508c"></circle><g fill="#fff"><path d="M24.571 12.192c-6.461 0-11.7 5.093-11.7 11.373 0 6.282 5.24 11.374 11.7 11.374 6.462 0 11.701-5.092 11.701-11.374-.001-6.28-5.239-11.373-11.701-11.373zm.417 15.812l-5.139-4.998 8.894-3.65-3.755 8.648z"></path><path d="M25.206 9.12l-.178 2.669c2.559.149 4.985.994 7.06 2.44l1.677-2.147a16.56 16.56 0 0 0-8.559-2.962zm10.306 4.372a21.778 21.778 0 0 0-.557-.493l-1.884 1.982c.17.143.345.279.51.43.132.123.247.256.372.382l2.057-1.792c-.168-.167-.321-.346-.498-.509zm-.735 3.205c1.61 1.942 2.568 4.221 2.847 6.556l.564-.039c-.338-2.584-1.397-4.572-3.097-6.282l-.314-.235zm3.516 7.793l-.582-.015c.007.399-.001.798-.032 1.196l.6.068c.024-.42.027-.835.014-1.249zM34.19 33.3l.582.549a12.802 12.802 0 0 0 3.367-6.835l-.616-.127A12.192 12.192 0 0 1 34.19 33.3zm-1.895 1.592l.489.672c.354-.247.695-.514 1.024-.799l-.538-.615a12.71 12.71 0 0 1-.975.742zm-7.373 2.332c-.3.004-.596-.014-.892-.028l-.054 1.108c2.696-.005 5.375-.694 7.679-2.02l-.425-.733a13.454 13.454 0 0 1-6.308 1.673zm-3.703.844c.45.08.901.138 1.354.176l.178-1.169a15.336 15.336 0 0 1-1.225-.224l-.307 1.217zm-7.021-5.674l-1.366 1.034a14.538 14.538 0 0 0 3.147 2.652 14.526 14.526 0 0 0 3.872 1.682l.453-1.255a13.61 13.61 0 0 1-4.995-2.938c-.403-.373-.766-.77-1.111-1.175zM12.802 30.4l-1.608.795c.232.389.483.77.752 1.138l1.497-.92a12.368 12.368 0 0 1-.641-1.013zm-1.466-8.12l-2.112-.373a14.684 14.684 0 0 0 1.312 8.057l1.713-.659a12.408 12.408 0 0 1-.913-7.025zm.628-2.341l-2.117-.798c-.148.447-.274.898-.377 1.352l2.123.587c.106-.385.23-.766.371-1.141zm2.845-4.381a13.056 13.056 0 0 1 6.479-3.491l-.576-2.439c-3.85.957-7.342 3.146-9.428 6.464a14.425 14.425 0 0 0-.91 1.705l2.084 1.017a12.365 12.365 0 0 1 2.351-3.256zm7.395-6.235l.336 2.536a13.87 13.87 0 0 1 1.231-.089l-.093-2.627c-.493.038-.984.098-1.474.18z"></path></g></svg>
